<svg enable-background="new 0 0 400 400" viewBox="0 0 400 400" xmlns="http://www.w3.org/2000/svg"><path d="m116.92 73.71c0-10.39 0-20.53 0-31.47-7.92 0-16.05.06-24.17-.02-8.25-.08-16.54.08-24.75-.61-5.11-.43-9.25-3.29-10.86-8.69-.56-1.88-.38-3.18 1.78-4.26 3.69-1.85 7.36-2.74 11.53-2.73 33.91.12 67.83.09 101.74.06 11.52-.01 23.04-.17 34.57-.18 1.89 0 3.97-.04 5.62.71 2.45 1.1 5.22 2.42 6.76 4.46 3.24 4.32 2.06 7.08-2.96 8.95-7.25 2.71-14.67 2.29-22.19 1.64-5.76-.5-11.58-.47-17.37-.43-2.81.02-4.41 1.12-4.44 4.66-.07 8.16-.74 16.31-1.31 24.46-.14 1.97.32 3.23 2.23 3.86 4.54 1.5 9 3.34 13.63 4.46 6.32 1.52 11.28 4.85 14.97 10.02 5.5 7.73 8.52 16.32 9.17 25.87 1.26 18.4 3.39 36.76 4.11 55.18.64 16.18.36 32.45-.45 48.63-1.13 22.71-4.44 45.17-10.57 67.13-.99 3.55-2.43 6.99-3.23 10.57-1.02 4.57-3.9 7.6-7.34 10.41-14.73 12.05-31.65 17.11-50.54 15.98-14.35-.86-27.99-4.47-40.96-10.64-.8-.38-1.78-.66-2.32-1.29-7.91-9.33-16.83-17.96-18.62-31.09-2.65-19.51-4.89-39-4.72-58.76.19-22.37-1-44.77-.38-67.13.42-15.25 2.46-30.51 4.71-45.63.86-5.77 3.91-11.38 6.78-16.62 1.58-2.88 4.96-4.73 7.32-7.25 4.52-4.84 9.98-7.71 16.52-8.69 1.74-.25 3.43-.91 5.74-1.56zm-16.08 212.03c3.36-5.03 6.82-9.48 9.49-14.36 4.3-7.88 10.24-13.77 18.69-16.76 6.42-2.27 8.23-6.61 8.12-13.09-.1-6.09 1.05-12.21 1.7-18.31.2-1.86 1.35-2.51 3.18-2.65 7.68-.57 11.43 3.32 10.49 10.86-.58 4.66-1.04 9.33-1.38 14.02-.2 2.65.34 4.83 3.4 6.05 4.14 1.65 8.1 3.78 11.99 5.97 1.87 1.06 3.71 2.48 5.03 4.16 4.84 6.15 9.42 12.51 14.19 18.72.64.83 1.79 1.26 2.71 1.88.49-1.03 1.25-2.02 1.41-3.1 1.79-11.6 3.42-23.23 5.24-34.83.43-2.75.06-5.07-1.87-7.1-6.01-6.32-12.03-12.63-18-19-8.37-8.93-16.8-17.84-18.1-30.91-.75-7.56-1.9-15.11-2.16-22.69-.69-20.46-.95-40.92-1.49-61.39-.12-4.67-.66-9.32-1.01-14.05-6.08 0-11.83 0-17.73 0 0 1.25.02 2.24 0 3.24-.45 22.25-.6 44.52-1.49 66.75-.38 9.44-1.5 19.02-3.74 28.18-5.09 20.78-17.99 36.45-34.87 49.02-2.26 1.68-3.18 3.33-2.92 6.09.63 6.57.77 13.19 1.59 19.73 1.02 8.12 3.13 15.99 7.53 23.57zm70.77-194.73c-.26 8.18-.56 15.76-.73 23.35-.5 21.45-1.28 42.91 2.15 64.24 1.55 9.62 4.06 18.73 11.61 25.69 2.36 2.18 4.33 4.83 6.27 7.42 1.67 2.22 3.77 2.92 6.59 2.69 0-1.49.03-2.91 0-4.33-.57-27.82-1.08-55.65-1.76-83.47-.17-7.12.05-14.46-3.24-21.02-1.8-3.59-4-7.61-7.16-9.73-3.75-2.51-8.72-3.18-13.73-4.84zm-79.95 124.94c.3.16.59.31.89.47 3.09-3.21 5.9-6.77 9.33-9.56 5.89-4.8 8.81-11 10.14-18.23.61-3.29 1.54-6.53 2.17-9.82 5.07-26.45 2.64-53.3 4.22-79.94.12-2.04-1.14-4.26-2.11-6.21-.3-.6-2.11-1.13-2.7-.78-4.16 2.4-8.2 5.01-12.22 7.65-.56.37-.87 1.25-1.08 1.96-5.1 16.54-7.77 33.6-8.45 50.78-.8 20-.19 40.05-.19 60.08zm88.46 82.79c-5.33-7.62-10.12-14.87-15.32-21.81-4.56-6.08-10.97-9.44-18.45-10.56-1.79-.27-3.88-.19-5.52.49-14.87 6.2-23.62 17.65-27.78 33.46 22.2 8.21 44.23 10.46 67.07-1.58zm-25.55-226.94c-.65-9.56-1.23-18.7-1.96-27.81-.05-.65-1.17-1.73-1.81-1.75-5.23-.14-10.46-.08-15.88-.08v30.66c6.47-.34 12.78-.67 19.65-1.02z" fill="#010103"/><path d="m313.32 319.44c.16-20.48.04-40.96-3.27-61.24-.84-5.16-1.81-10.36-3.4-15.33-2.59-8.11-8.33-13.14-16.49-15.79-6.46-2.09-12.72-4.79-19.01-7.39-8.92-3.69-15.17-10.42-19.21-18.87-11-23-12.09-46.55-3.12-70.57 2.92-7.83 8.63-12.69 15.93-15.15 7.12-2.4 14.71-3.54 22.19-4.65 9.84-1.46 19.77-2.28 29.63-3.57 1.31-.17 3.19-1.22 3.56-2.29 1.18-3.43 2.58-7.1 2.43-10.61-.32-7.68-1.56-15.31-2.38-22.97-.27-2.5-1.74-3.93-3.88-5-7.36-3.69-15.31-5.12-23.37-5.31-16.65-.4-33.31-.31-49.97-.49-3.35-.04-6.72-.16-10.03-.63-4.55-.66-7.47-3.72-7.97-8.25-.1-.94.76-2.54 1.61-2.96 6.36-3.12 12.91-5.04 20.24-4.76 15.76.59 31.54.42 47.3.85 9.43.26 18.61 2.1 27.49 5.47 10.22 3.89 15.23 11.55 16.6 22 1.87 14.25-.27 28.07-4.61 41.63-.34 1.06-1.27 2.04-2.16 2.79-9.25 7.76-20.06 9.74-31.77 8.58-8.44-.84-16.65.54-24.86 2.54-4.83 1.18-8.23 3.91-9.94 8.14-1.98 4.91-3.96 10.14-4.26 15.33-.86 14.48.93 28.81 5.09 42.75.5 1.7 1.95 3.6 3.49 4.41 6.8 3.61 13.56 7.5 20.76 10.1 19.73 7.12 30.67 21.37 35.59 41.18 3.46 13.92 4.25 28.08 4.14 42.28-.18 25.84-.71 51.67-1.13 77.51-.05 3.33-1.99 5.54-5.05 6.09-3.17.57-5.22-.67-6.56-3.65-2.58-5.72-3.68-11.67-3.65-17.91.08-11.43.04-22.84.04-34.26z" fill="#010103"/><g fill="#fcfbfa"><path d="m385.2 377.6.6-.7c.6.4 1.3.9 1.9 1.5l-.6.7c-.8-.5-1.4-1-1.9-1.5zm.3 7.1c.6-1.4 1.1-2.9 1.5-4.5.3.1.6.3.9.4-.5 1.4-1 2.9-1.5 4.4zm.2-10.1.6-.6c.7.5 1.3 1.1 1.9 1.6l-.7.7c-.6-.6-1.2-1.2-1.8-1.7zm8.4-.8h.8v.9h1.8v.7h-1.8v1.8h-.8v-.3h-1.2v.9h3.3v2.6h-.8v-.4h-2.5c0 .3 0 .6-.1.8h3.4v.7h-3.5c0 .3-.1.6-.1.8h4v.7h-3.5c.7.9 1.9 1.3 3.6 1.5-.2.2-.4.5-.6.9-1.9-.3-3.2-1.1-3.8-2.3-.5 1.1-1.8 2-3.9 2.4-.2-.3-.4-.5-.6-.8 1.9-.4 3.1-.9 3.6-1.7h-3.2v-.7h3.5c.1-.2.1-.5.2-.8h-3.3v-.7h3.4c0-.2 0-.5 0-.8h-2.4v.3h-.8v-2.6h3.3v-.9h-1.2v.3h-.8v-1.8h-1.8v-.7h1.8v-.9h.8v.9h3.2zm-4.4 5.5h2.4c0-.3 0-.6 0-.9h-2.4zm1.2-3.1h3.2v-.8h-3.2zm4.4 2.2h-2.4v.9h2.5v-.9z"/><path d="m389.2 385.8h.9v1.5h1.9v-1.5h.9v1.5h2.7v6h1.1v.9h-11.3v-.9h1.1v-6h2.7zm.2 8.7.5.8c-1.2.6-2.5 1.3-4 1.9-.2-.3-.3-.6-.6-.8 1.6-.6 3-1.3 4.1-1.9zm-2-4.3h1.9v-2.1h-1.9zm0 3.1h1.9v-2.2h-1.9zm2.7-3.1h1.9v-2.1h-1.9zm0 3.1h1.9v-2.2h-1.9zm2.4 1.3c1.4.6 2.7 1.2 4.1 1.8l-.5.9c-1.5-.7-2.8-1.4-4.1-1.9zm2.2-6.5h-1.9v2.1h1.9zm-1.9 5.2h1.9v-2.2h-1.9z"/></g></svg>