<svg enable-background="new 0 0 400 400" viewBox="0 0 400 400" xmlns="http://www.w3.org/2000/svg"><g fill="#fafafb"><path d="m12.4 4.8-6.1 9h6v1.2h-8v-.5l6.1-8.9h-5.7v-1.2h7.6v.4z"/><path d="m14 15v-10.6h3c1.6 0 2.9.5 4 1.4s1.6 2.2 1.6 3.8-.5 3-1.6 3.9-2.4 1.5-4 1.5zm1.4-9.4v8.2h1.6c1.3 0 2.4-.4 3.1-1.1s1.1-1.8 1.1-3.1-.4-2.3-1.2-3-1.8-1-3.1-1z"/><path d="m26.1 4.4v10.6h-1.4v-10.6z"/><path d="m36.1 14.6c-.8.4-1.8.6-2.9.6-1.5 0-2.7-.5-3.6-1.4s-1.4-2.2-1.4-3.8c0-1.7.5-3.1 1.5-4.1s2.3-1.6 3.9-1.6c1 0 1.8.1 2.5.4v1.4c-.8-.4-1.6-.6-2.5-.6-1.2 0-2.1.4-2.9 1.2s-1.1 1.8-1.1 3.2c0 1.3.3 2.3 1 3s1.6 1.1 2.7 1.1c1 0 2-.2 2.7-.7v1.3z"/><path d="m37.6 14.3c0-.2.1-.5.3-.6s.4-.3.6-.3c.3 0 .5.1.6.3s.3.4.3.6-.1.4-.3.6-.4.3-.6.3c-.3 0-.5-.1-.6-.3s-.3-.4-.3-.6z"/><path d="m50.2 15h-1.6l-5.3-8.2c-.2-.2-.3-.5-.4-.7 0 .2.1.7.1 1.5v7.4h-1.4v-10.6h1.7l5.2 8.1c.2.4.4.6.4.7 0-.3-.1-.8-.1-1.5v-7.3h1.4z"/><path d="m58.6 15h-5.7v-10.6h5.5v1.2h-4.1v3.4h3.8v1.2h-3.8v3.6h4.3z"/><path d="m67.1 5.6h-3.1v9.4h-1.4v-9.4h-3v-1.2h7.5z"/></g><path d="m137.65 49.88c1.45-.25 2.53-.58 3.61-.61 8.45-.23 16.9-.35 25.35-.61 7.48-.23 14.96-.66 22.44-.84 3.71-.09 4.35.84 3.93 4.99-3.21.52-6.53.89-9.75 1.66-.96.23-2.39 1.58-2.36 2.37.33 8.23.96 16.44 1.4 24.67.15 2.73.24 5.52-.11 8.22-.29 2.26-2 4.71.59 6.4 2.63 1.71 5.61 2.8 8.76.9.37-.22.81-.34 1.18-.48 2.91 2.14 3.4 4.38 2.35 8.04-1.53 5.3-2.02 10.98-2.38 16.53-.41 6.22-.21 12.48-.22 18.72-.02 11.84-.04 23.68.02 35.52.03 7.43.67 14.87-1.11 22.22-1.07 4.42-2.85 8.11-7.39 9.94-2.48 1-5.04 2.01-7.22 3.52-7.42 5.14-23.12-.62-25.96-11.43-2.81-10.71-3.47-21.6-3.79-32.55-.43-14.58-.55-29.18-1.26-43.75-.29-5.96-1.1-12.04-4.47-17.34-.82-1.29-1.43-2.72-2.48-4.76 4.63-.33 8.71-.73 12.79-.86 2.68-.08 3.93-.88 4.17-3.86.63-7.99 1.98-15.94 2.4-23.94.22-4.25-1.29-8.48-.09-12.89.66-2.42-.47-4.59-3.68-4.68-3.12-.09-6.24-.33-9.36-.58-2.97-.25-5.69-1.01-7.36-4.52zm49.88 112.94c-2.29-.46-4.37-.86-6.44-1.29-8.93-1.85-17.76-1.18-26.52 1.08-1.98.51-2.96 1.46-2.72 3.79.38 3.66.3 7.37.48 11.06.42 8.45 1.66 16.7 6.26 24.05.67 1.07 1.69 2.12 2.8 2.69 9.85 5.01 22.04-.02 24.29-10.7 1.6-7.59 1.74-15.5 2.32-23.28.19-2.41-.29-4.87-.47-7.4zm-35.72-26.07c.46.24.64.41.85.44 11.28 1.73 22.27.02 33.14-2.85.68-.18 1.38-1.6 1.47-2.5.81-8.01 1.44-16.04 2.23-24.05.22-2.24-.85-3.63-2.75-3.93-2.94-.48-5.97-.7-8.95-.6-3.67.12-7.34.6-10.98 1.09-4.95.67-9.89 1.44-14.81 2.3-1.85.32-2.69 1.45-2.48 3.58.86 8.78 1.53 17.58 2.28 26.52zm29.51 5.11c-9.36.89-16.44 1.52-23.5 2.27-1.3.14-2.64.62-3.78 1.26-.74.41-1.64 1.39-1.65 2.12-.04 2.31.03 4.7.63 6.91.26.93 1.96 2.11 2.99 2.1 9.45-.1 18.9-.32 28.34-.83 1.5-.08 3.99-1.6 4.17-2.75 1.01-6.51-3.09-11.03-7.2-11.08zm-5.69-44.52c1.83-12.33-.91-14.11-11.97-12.97-.05.1-.13.2-.13.3-.12 4.49-.28 8.97-.27 13.46 0 .29 1.33.9 1.97.82 3.41-.43 6.8-1.04 10.4-1.61zm-12.28-17.33h9.78c.33 0 .7.03 1-.08.67-.26 1.57-.44 1.9-.96 1.97-3.15 1.21-7.13-2.03-8.75-2.65-1.32-5.66-2-8.57-2.7-.52-.13-1.68.85-1.97 1.55-1.55 3.64-1.44 7.36-.11 10.94zm4.31-15.97c4.57.33 7.04-.97 7.31-3.85.41-4.36-.85-6-4.84-6.31-5.45-.43-8.1 1.42-8.4 5.87-.2 2.98 1.13 3.94 5.93 4.29z" fill="#010105"/><path d="m198.29 28.6c13.59-.75 25.95-3.88 38.93-2.98.47 4.97.98 9.73 1.36 14.5 1.26 15.83 3.03 31.64 3.52 47.49.35 11.35-.75 22.78-1.76 34.13-.69 7.66-5.34 12.24-13.17 13.26-2.88.38-5.79.66-8.62 1.3-5.62 1.27-7.51 5.69-6.28 11.22 1.76 7.9 7.58 9.77 14.16 11.07 3.4.67 6.82 1.23 10.17 2.1 3.35.86 4.84 2.81 5.07 6.71.4 6.75 1.88 13.44 2.9 20.16.22 1.43.51 2.87.58 4.31.44 9.5.76 19 1.28 28.49.1 1.83.97 3.6 1.35 5.43.25 1.16.37 2.38.36 3.57 0 4.9-.15 9.81-.1 14.71.05 5.13.81 10.32.29 15.39-1.15 11.27.81 22.3 1.62 33.42.86 11.93 1.36 23.89 2.36 35.82.77 9.24 2.31 18.41 3.03 27.65.47 6.07.09 12.2-.63 18.51-.54-2.35-1.37-4.68-1.58-7.06-2.09-23.47-6.78-46.7-6.77-70.38 0-1.66-.22-3.38-.69-4.96-3.6-11.92-1.97-24.21-2.79-36.32-1.15-17.17-2.97-34.3-4.39-51.46-.48-5.8-.45-11.63-.92-17.43-.53-6.57-1.27-13.12-2.15-19.65-.13-.95-1.41-2.18-2.4-2.48-2.98-.92-6.05-1.74-9.14-2.07-7.36-.78-12.13-5.35-16.32-10.74-3.57-4.6-1.47-12.18 1.8-16.19 2.69-3.3 6.08-5.52 10.51-5.85 1.21-.09 2.38-.61 3.6-.8 10.62-1.67 13.65-8.75 13.72-18.32.01-.67-.19-1.34-.17-2.01.07-3.11-1.32-4.61-4.53-4.77-2.78-.14-5.53-1.05-8.3-1.1-5.51-.11-7.97-3.72-9.37-8.12-2.98-9.41-3.22-19.2-2.41-28.9.66-7.92-.78-15.28-3.66-22.49-.91-2.27-2.07-4.5-3.45-6.51-1.33-1.93-3.13-3.53-4.66-5.32-.67-.81-1.21-1.71-2.35-3.33zm12.38 5.08c.47 1.65.81 2.82 1.14 4 2.7 9.45 5.86 18.77 5.64 28.83-.17 7.71-.29 15.47.43 23.13.81 8.57 9.62 12.72 17.21 8.51 1.04-.58 2.15-2.14 2.19-3.27.24-8.81.7-17.66.15-26.44-.62-9.91-2.19-19.77-3.43-29.64-.61-4.85-2.83-6.73-7.63-6.43-5.12.31-10.23.84-15.7 1.31z" fill="#010105"/><path d="m182.84 33.34c-11.4 0-22.55.02-33.69-.05-.68 0-1.34-.79-2.02-1.21.48-.61.85-1.6 1.46-1.77 2.34-.68 4.75-1.45 7.15-1.54 7.63-.29 15.29-2.13 22.89.37 2.44.78 4.3 1.83 4.21 4.2z" fill="#010105"/></svg>