<svg enable-background="new 0 0 400 400" viewBox="0 0 400 400" xmlns="http://www.w3.org/2000/svg"><g fill="#fafafb"><path d="m12.4 4.8-6.1 9h6v1.2h-8v-.5l6.1-8.9h-5.7v-1.2h7.6v.4z"/><path d="m14 15v-10.6h3c1.6 0 2.9.5 4 1.4s1.6 2.2 1.6 3.8-.5 3-1.6 3.9-2.4 1.5-4 1.5zm1.4-9.4v8.2h1.6c1.3 0 2.4-.4 3.1-1.1s1.1-1.8 1.1-3.1-.4-2.3-1.2-3-1.8-1-3.1-1z"/><path d="m26.1 4.4v10.6h-1.4v-10.6z"/><path d="m36.1 14.6c-.8.4-1.8.6-2.9.6-1.5 0-2.7-.5-3.6-1.4s-1.4-2.2-1.4-3.8c0-1.7.5-3.1 1.5-4.1s2.3-1.6 3.9-1.6c1 0 1.8.1 2.5.4v1.4c-.8-.4-1.6-.6-2.5-.6-1.2 0-2.1.4-2.9 1.2s-1.1 1.8-1.1 3.2c0 1.3.3 2.3 1 3s1.6 1.1 2.7 1.1c1 0 2-.2 2.7-.7v1.3z"/><path d="m37.6 14.3c0-.2.1-.5.3-.6s.4-.3.6-.3c.3 0 .5.1.6.3s.3.4.3.6-.1.4-.3.6-.4.3-.6.3c-.3 0-.5-.1-.6-.3s-.3-.4-.3-.6z"/><path d="m50.2 15h-1.6l-5.3-8.2c-.2-.2-.3-.5-.4-.7 0 .2.1.7.1 1.5v7.4h-1.4v-10.6h1.7l5.2 8.1c.2.4.4.6.4.7 0-.3-.1-.8-.1-1.5v-7.3h1.4z"/><path d="m58.6 15h-5.7v-10.6h5.5v1.2h-4.1v3.4h3.8v1.2h-3.8v3.6h4.3z"/><path d="m67.1 5.6h-3.1v9.4h-1.4v-9.4h-3v-1.2h7.5z"/></g><path d="m21.8 111.72c9.95-1.14 19.71-2.28 29.47-3.38 12.89-1.45 25.8-2.76 38.67-4.38 4.11-.52 7.95-.47 11.8 1.19 1.12.48 2.81.84 3.77.34 8.33-4.35 17.36-5.42 26.52-6.34 11.38-1.14 22.73-1.67 34.13-.4 7.03.78 11.97 4.47 15.54 10.39 1.09 1.81.76 3-.48 4.72-4.49 6.23-9.14 12.42-12.88 19.1-4.01 7.17-3.98 15.08-2.58 23.18 2.67 15.52 4.81 31.13 7.31 46.68.25 1.58 1.08 3.4 2.24 4.46 7.4 6.83 14.94 13.51 22.48 20.18 14.29 12.63 20.54 28.3 18.19 47.34-2.49 20.15-7.81 39.42-17.36 57.44-1.87 3.53-4.33 6.31-7.72 8.56-15.26 10.17-31.42 18.35-49.1 23.47-17.76 5.15-35.06 3.29-52.39-2.29-10.67-3.43-19.01-9.45-26.51-17.79-13.99-15.56-23.57-33.03-27.1-53.73-.24-1.43-.51-2.91-1.11-4.2-3.28-7.03-1.93-13.45.48-20.72 5.11-15.38 14.18-28.14 24.24-40.21 6.07-7.28 7.3-14.81 6.05-23.57-3.55-25-10.4-49.16-18.31-73.06-.38-1.14-1.72-2.32-2.9-2.78-4.99-1.96-10.11-3.56-15.12-5.48-3.86-1.48-6.49-4.19-7.33-8.72zm98.94 238.46v.09c4.92 0 9.84.04 14.76-.01 13.19-.11 25.78-2.67 37.23-9.53 1.8-1.08 3.96-2.15 4.97-3.82 3.59-5.92 7.16-11.91 9.98-18.22 6.27-13.99 8.55-28.87 8.77-44.11.2-13.72-1.91-26.91-10.82-37.91-6.61-8.17-13.54-15.3-25.84-15.31-17.88-.01-35.68-1.17-53.44 2.42-15.4 3.11-29.8 7.95-41.64 18.72-.81.74-1.7 1.55-2.14 2.51-5.14 11.05-8.8 22.55-8.83 34.84-.05 18.36 6.16 35.07 14.31 51.18.51 1 1.65 1.78 2.65 2.4 7.5 4.67 15.11 9.17 22.53 13.96 3.04 1.96 6.08 2.97 9.72 2.85 5.93-.2 11.86-.06 17.79-.06zm-23.16-190.76c6.63-.7 13.24-1.07 19.73-2.17 10.34-1.76 20.6-3.96 30.87-6.1 1.18-.25 2.87-1.06 3.17-1.99 2.93-8.98 3.19-18.75-7.61-23.77-6.76-3.14-13.74-5.86-20.77-8.37-1.98-.71-4.51-.29-6.7.12-6.34 1.18-12.58 3.02-18.96 3.86-6.93.92-13.28 2.89-18.79 7.23-.79.62-1.73 1.68-1.75 2.56-.24 9-.14 17.99 5.58 25.66.8 1.08 2.3 2.11 3.58 2.27 3.88.47 7.8.5 11.65.7zm-13.51 29.31c-.43.02-.87.04-1.3.06 1.42 5.68 2.72 11.39 4.32 17.02.8 2.81 2.47 4.63 5.95 3.41 1.65-.58 3.53-.51 5.3-.72 18.63-2.29 37.25-4.61 55.89-6.85 1.91-.23 2.81-.87 2.63-2.91-.32-3.78-.32-7.6-.78-11.37-1.11-9.15-5.26-15.79-15.04-17.65-9.62-1.84-19.25-2.54-28.95-.59-7.9 1.59-15.69 3.34-22.52 8.06-4.1 2.83-7.58 5.66-5.5 11.54z" fill="#010105"/><path d="m370.94 368.97c-8.45-2.77-16.79-5.93-25.36-8.2-10.98-2.89-20.34-8.21-28.51-16.01-3.71-3.55-7.63-7.01-11.93-9.78-6.97-4.49-9.82-11.3-11.92-18.71-3.33-11.74-3-23.47.61-35.05 3.72-11.95 7.99-23.77 9.18-36.32.7-7.44 1.02-14.96.9-22.43-.05-2.85-1.4-5.9-2.87-8.45-2.17-3.75-4.82-7.25-7.55-10.63-5.15-6.38-11.82-9.22-20.08-8.14-2.21.29-4.46.32-6.7.34-4.65.04-7.38-1.86-9.28-6.42 6.72-3.52 13.24-6.64 21.48-5.3 10.84 1.76 21.08 4.76 30.76 9.88 13.68 7.24 20.38 18.68 19.24 33.97-.5 6.77-2.83 13.47-4.88 20.03-1.24 3.96-3.19 7.82-5.45 11.32-6.77 10.51-8.44 21.73-5.49 33.73 3.08 12.52 7.35 24.62 13.48 36 .77 1.43 1.89 2.8 3.16 3.8 8.77 6.94 17.66 13.73 26.44 20.66 3.42 2.7 6.77 5.51 9.92 8.52 2.03 1.94 3.64 4.33 5.44 6.52-.21.22-.4.45-.59.67z" fill="#010105"/><path d="m57.49 47.04c7.4-5.88 15.82-9.14 24.84-10.46 12.93-1.9 25.92-3.55 38.94-4.6 5.82-.47 11.86.37 17.64 1.44 2.67.49 5.62 2.47 7.29 4.65 3.59 4.7 2.66 7.52-2.47 10.22-10.16 5.36-21 8.39-32.48 8.31-15.2-.12-30.4-.74-45.6-1.02-3.02-.06-5.03-.96-6-3.97-.5-1.56-1.4-3-2.16-4.57z" fill="#010105"/><path d="m155.33 38.64c2.63 3.65 4.67 6.5 6.97 9.69-2.75.92-5.22 1.74-8.27 2.76.43-4.14.82-7.8 1.3-12.45z" fill="#010105"/><path d="m83.99 246.48c16.66-1.27 33.46-2.6 50.27-3.75 2.75-.19 5.63.14 8.3.83 1.93.5 4.02 1.64 5.3 3.13 2.91 3.4 2.16 5.77-1.96 7.46-11.86 4.86-24.41 6.15-37.02 6.93-5.1.31-10.27.2-15.37-.23-7.5-.63-11.27-6.34-9.52-14.37z" fill="#010105"/><path d="m85.22 301.13c7.67-.68 15.2-1.87 22.73-1.9 10-.04 19.02-2.17 26.85-8.63.66-.54 2.08-.66 2.94-.36 4.61 1.55 7.24 4.6 8.07 9.65 1.31 7.92 1.56 7.85-5.6 11.32-12.63 6.12-25.57 5.4-38.59 1.63-3.2-.93-6.23-2.44-9.41-3.49-3.58-1.19-5.9-3.43-6.99-8.22z" fill="#010105"/></svg>