<svg enable-background="new 0 0 400 400" viewBox="0 0 400 400" xmlns="http://www.w3.org/2000/svg"><g fill="#fafafb"><path d="m12.4 4.8-6.1 9h6v1.2h-8v-.5l6.1-8.9h-5.7v-1.2h7.6v.4z"/><path d="m14 15v-10.6h3c1.6 0 2.9.5 4 1.4s1.6 2.2 1.6 3.8-.5 3-1.6 3.9-2.4 1.5-4 1.5zm1.4-9.4v8.2h1.6c1.3 0 2.4-.4 3.1-1.1s1.1-1.8 1.1-3.1-.4-2.3-1.2-3-1.8-1-3.1-1z"/><path d="m26.1 4.4v10.6h-1.4v-10.6z"/><path d="m36.1 14.6c-.8.4-1.8.6-2.9.6-1.5 0-2.7-.5-3.6-1.4s-1.4-2.2-1.4-3.8c0-1.7.5-3.1 1.5-4.1s2.3-1.6 3.9-1.6c1 0 1.8.1 2.5.4v1.4c-.8-.4-1.6-.6-2.5-.6-1.2 0-2.1.4-2.9 1.2s-1.1 1.8-1.1 3.2c0 1.3.3 2.3 1 3s1.6 1.1 2.7 1.1c1 0 2-.2 2.7-.7v1.3z"/><path d="m37.6 14.3c0-.2.1-.5.3-.6s.4-.3.6-.3c.3 0 .5.1.6.3s.3.4.3.6-.1.4-.3.6-.4.3-.6.3c-.3 0-.5-.1-.6-.3s-.3-.4-.3-.6z"/><path d="m50.2 15h-1.6l-5.3-8.2c-.2-.2-.3-.5-.4-.7 0 .2.1.7.1 1.5v7.4h-1.4v-10.6h1.7l5.2 8.1c.2.4.4.6.4.7 0-.3-.1-.8-.1-1.5v-7.3h1.4z"/><path d="m58.6 15h-5.7v-10.6h5.5v1.2h-4.1v3.4h3.8v1.2h-3.8v3.6h4.3z"/><path d="m67.1 5.6h-3.1v9.4h-1.4v-9.4h-3v-1.2h7.5z"/></g><path d="m127.34 59.34c-6.99-2.58-13.95-2.04-20.98-1.23-4.86.56-9.78 1.21-14.64.99-4.85-.22-8.52-2.99-10.74-7.96 7.09-1.34 13.97-2.66 20.86-3.92 6.71-1.23 13.4-2.59 20.14-3.54 2.89-.41 6.02-.41 8.84.24 18.16 4.18 36.57 4.67 55.05 3.86 5.79-.25 11.55-1.5 17.34-1.66 4.49-.12 9.06.48 13.5 1.3 1.65.3 3.35 1.87 4.45 3.31 2.82 3.67 1.86 6.28-2.26 8.22-6.56 3.1-13.25 2.11-20.08 1.43-3.67-.37-7.51.24-11.19.89-2.89.52-4.42 2.58-4.49 5.77-.21 9.03-.75 18.06-.85 27.1-.1 9.51.24 19.02.2 28.53-.01 2.31.75 3.84 2.6 4.97 4.1 2.51 8.05 5.29 12.32 7.45 15.15 7.67 22.77 20.35 24.59 36.77 2.65 23.99 2.26 48.05.54 72.06-.64 8.96-3.21 17.79-4.91 26.67-.12.65-.26 1.35-.61 1.9-10.79 17.26-23.99 31.46-45.04 35.92-6.02 1.28-11.84 1.87-17.73-.65-5.22-2.24-10.72-3.83-15.9-6.13-10.69-4.75-17.57-14.1-25.18-22.3-3.68-3.97-4.89-10.18-7.41-15.28-8.87-17.98-12.81-37.06-13.38-57-.22-7.6-1.09-15.17-1.69-22.76-.71-8.87.75-17.02 6.95-23.96 3.87-4.33 7.45-8.95 10.89-13.64 3.04-4.14 6.43-7.54 11.44-9.33 3.05-1.09 4.45-3.87 3.48-7.08-1.32-4.36-.73-8.37 1.31-12.27 2.19-4.18 2.67-8.6 2.62-13.28-.17-13.88-.06-27.76-.06-41.63.02-1.22.02-2.44.02-3.76zm22.94 136.01c0-.13 0-.27-.01-.4 14.63-.35 29.27-.73 43.9-1.05 5.67-.12 11.1-.97 16.01-4.09 2.14-1.35 3.12-2.83 2.29-5.5-.86-2.76-1.42-5.65-1.81-8.52-1.48-10.68-5.3-20.23-12.92-28.1-4.54-4.69-9.67-8.48-16.17-9.59-7.58-1.29-15.25-2.02-22.88-3-6.02-.77-11.42.79-16.44 4.16-4.73 3.18-10.03 4.71-15.71 5.32-2.39.26-5.58.68-6.86 2.27-5.97 7.46-11.83 15.09-16.82 23.21-2.23 3.62-2.35 8.55-3.35 12.91-1.06 4.59-1.25 9.16 1.75 13.14.7.93 2.3 1.76 3.45 1.71 15.21-.72 30.39-1.62 45.57-2.47zm1.23 52.31c-.03-.35-.06-.69-.09-1.04-4.03 0-8.06-.07-12.08.01-8.96.18-17.85.87-26.5 3.55-2.65.82-3.7 2.19-2.83 4.85.8 2.43 1.34 5.01 2.51 7.26 9.56 18.38 24.99 29.3 44.68 34.63 8.47 2.29 16.62 1.32 24.33-2.93 13.84-7.64 24.29-18.16 28.52-33.87.98-3.65 1.92-7.33 2.56-11.05.4-2.32-.67-3.72-3.38-3.74-3.01-.01-6.02-.44-9.03-.62-4.12-.25-8.29-.9-12.37-.57-12.13.96-24.22 2.32-36.32 3.52zm-52.52-37.31c.33 2.6.37 4.85.93 6.97 1.34 5.06 2.71 10.14 4.48 15.06 2.6 7.24 2.77 7.46 10.19 7.13 17.52-.79 35.04-1.74 52.54-2.86 13.13-.83 26.01-4.46 39.33-3.58 1.87.12 4.03-.72 5.67-1.74 1.29-.8 2.71-2.52 2.81-3.92.39-5.45.79-11 .16-16.39-.36-3.07-2.55-5.99-4.19-8.81-.88-1.51-2.36-1.64-4.04-.6-4.81 2.98-10.05 3.09-15.54 2.47-5.08-.57-10.28-1.02-15.34-.57-16.48 1.45-32.9 3.44-49.37 4.99-9 .85-18.04 1.22-27.63 1.85zm73.48-113.4c-7.32-1.48-14.38-2.66-21.3-4.4-3.49-.88-6.13-.4-8.27 2.38-.85 1.1-1.69 2.35-2.04 3.66-1.16 4.31-2.16 8.67-3.1 13.04-1.25 5.74-1.53 11.48.26 17.48 8.76-1.52 17.44-3 26.12-4.53 4.28-.75 6.17-2.47 6.65-6.86.73-6.77 1.12-13.58 1.68-20.77zm-.26-20.72c-.64-3.84-.93-7.79-2.06-11.48-.51-1.66-2.54-3.78-4.15-4.03-6.81-1.09-13.72-1.57-20.6-2.27-3.16-.32-5.01.94-5.35 4.05-.81 7.28.58 14.27 3.51 20.91.43.96 2.14 1.95 3.23 1.92 5.92-.16 11.84-.51 17.75-1.02 8.16-.71 7.08.18 7.67-8.08z" fill="#010105"/><path d="m256.09 184.04c-2.1-8.15-4.21-16.34-6.3-24.53-.75-2.92-1.12-5.99-2.25-8.75-2.93-7.18-1.55-13.85.67-21.02 3.42-11.05 7.82-20.92 16.77-28.93 7.3-6.54 12.93-14.88 16.66-24.12 4.02-9.96 2.96-20.06-.77-29.81-2.9-7.59-16.66-13.3-24.43-10.59-3.16 1.1-6.23 2.46-9.38 3.61-3.89 1.42-5.87.54-7.85-3.42 4.69-4.49 10.76-6.49 16.53-9.14 4.86-2.24 9.72-2.32 14.73-1.49 20.02 3.31 32.46 25 25.14 44.36-2.51 6.65-6.08 12.91-9.24 19.31-.42.86-1.16 1.75-1.98 2.19-8.61 4.66-13.64 12.45-17.88 20.78-3.74 7.36-7 14.96-10.44 22.47-1.59 3.48-1.74 6.97-.47 10.68 2.34 6.87 4.52 13.8 6.5 20.78.87 3.08 1.5 6.35 1.52 9.53.02 4.73-2.66 7.37-7.53 8.09z" fill="#010105"/><path d="m264.15 185.31c4.61.87 6.01 4.17 7.01 7.64 2.75 9.44 5.28 18.94 8.07 28.37 1.07 3.64 1.53 7.13.19 10.78-.36.97-.51 2.41-.05 3.24 3.26 5.77 2.38 12.21 3.07 18.36.38 3.36-.41 6.82-.41 10.24.01 4.02.35 8.03.47 12.05.45 15.5 4.53 30.36 8.04 45.31.35 1.5 1 2.95 1.65 4.36 5.36 11.56 10.72 23.11 16.15 34.64.75 1.59 1.71 3.16 2.89 4.44 2.42 2.64 1.78 5.68 1.25 8.59-.36 1.96-3.34 2.16-4.74.18-3.99-5.65-8.24-11.19-11.56-17.23-6.59-11.98-11.74-24.6-14.42-38.11-.22-1.09-.54-2.19-1.03-3.18-2.8-5.63-4.02-11.37-3.18-17.78.35-2.68-1.7-5.64-2.47-8.52-.62-2.34-1.29-4.74-1.37-7.13-.19-6.26-.36-12.55-.01-18.8.86-15.12-1.47-29.83-4.76-44.51-1.53-6.83-3.16-13.43-7.24-19.25-.6-.86-.74-2.36-.49-3.42.81-3.36 1.89-6.65 2.94-10.27z" fill="#010105"/></svg>