<svg enable-background="new 0 0 400 400" viewBox="0 0 400 400" xmlns="http://www.w3.org/2000/svg"><path d="m385.2 377.6.6-.7c.6.4 1.3.9 1.9 1.5l-.6.7c-.8-.5-1.4-1-1.9-1.5zm.3 7.1c.6-1.4 1.1-2.9 1.5-4.5.3.1.6.3.9.4-.5 1.4-1 2.9-1.5 4.4zm.2-10.1.6-.6c.7.5 1.3 1.1 1.9 1.6l-.7.7c-.6-.6-1.2-1.2-1.8-1.7zm8.4-.8h.8v.9h1.8v.7h-1.8v1.8h-.8v-.3h-1.2v.9h3.3v2.6h-.8v-.4h-2.5c0 .3 0 .6-.1.8h3.4v.7h-3.5c0 .3-.1.6-.1.8h4v.7h-3.5c.7.9 1.9 1.3 3.6 1.5-.2.2-.4.5-.6.9-1.9-.3-3.2-1.1-3.8-2.3-.5 1.1-1.8 2-3.9 2.4-.2-.3-.4-.5-.6-.8 1.9-.4 3.1-.9 3.6-1.7h-3.2v-.7h3.5c.1-.2.1-.5.2-.8h-3.3v-.7h3.4c0-.2 0-.5 0-.8h-2.4v.3h-.8v-2.6h3.3v-.9h-1.2v.3h-.8v-1.8h-1.8v-.7h1.8v-.9h.8v.9h3.2zm-4.4 5.5h2.4c0-.3 0-.6 0-.9h-2.4zm1.2-3.1h3.2v-.8h-3.2zm4.4 2.2h-2.4v.9h2.5v-.9z" fill="#fcfafa"/><path d="m389.2 385.8h.9v1.5h1.9v-1.5h.9v1.5h2.7v6h1.1v.9h-11.3v-.9h1.1v-6h2.7zm.2 8.7.5.8c-1.2.6-2.5 1.3-4 1.9-.2-.3-.3-.6-.6-.8 1.6-.6 3-1.3 4.1-1.9zm-2-4.3h1.9v-2.1h-1.9zm0 3.1h1.9v-2.2h-1.9zm2.7-3.1h1.9v-2.1h-1.9zm0 3.1h1.9v-2.2h-1.9zm2.4 1.3c1.4.6 2.7 1.2 4.1 1.8l-.5.9c-1.5-.7-2.8-1.4-4.1-1.9zm2.2-6.5h-1.9v2.1h1.9zm-1.9 5.2h1.9v-2.2h-1.9z" fill="#fcfafa"/><g fill="#010100"><path d="m57.51 148.67c21.37-5.55 42.55-11.05 63.91-16.6-2.55-24.47-5.08-48.67-7.63-73.09-7.56.73-14.9 1.45-22.25 2.13-2 .18-4.02.37-6.03.31-7.32-.2-11.94-3.83-14.3-11.45 5.48-.63 10.87-1.28 16.28-1.86 24.96-2.7 49.93-5.39 74.89-8.06 10.96-1.18 21.89-2.85 32.88-3.29 7.61-.31 15.01 2.26 21.78 5.86 1.86.99 3.04 3.27 4.97 5.45-8.05 2.28-15.16 4.72-22.47 6.21-4.83.99-6.54 3.66-7.43 7.97-2.3 11.15-1.6 22.36-1.08 33.58.5 10.69 1.11 21.38 1.54 32.08.08 1.92.76 2.97 2.36 4.01 9.07 5.93 19.35 7.67 29.8 9.08 9.56 1.29 16.66 6.27 21.15 15.14-.67.61-1.24 1.21-1.89 1.71-4.92 3.78-8.04 8.44-8.66 14.87-.91 9.48-5.43 17.7-9.74 25.98-1.5 2.88-2.58 6.01-3.5 9.13-7.03 23.74-13.07 47.81-21.2 71.16-7.31 20.96-23.35 33.79-44.82 39.56-1.02.27-2.3.06-3.34-.28-9.26-3-18.51-6.02-27.72-9.18-1.28-.44-2.66-1.41-3.38-2.52-12.18-18.71-21.62-38.64-25.6-60.76-1.25-6.95-1.47-14.11-1.74-21.19-.44-11.21.08-22.56-3.93-33.28-1.99-5.31-4.46-10.49-7.26-15.42-2.76-4.87-6.47-9.2-9.28-14.05-2.38-4.1-5.85-5.86-10.22-6.58-4.79-.77-5.29-1.32-6.09-6.62zm56.26 97.22c1.09.16 1.81.33 2.54.36 18.2.98 36.39 2.2 54.6 2.82 8.43.29 16.91-.6 25.36-.97 1.98-.09 2.82-1.07 3.15-3.14 1.53-9.62 3.26-19.21 4.92-28.82.72-4.2 1.42-8.4 2.14-12.66-1.18-.09-1.81-.17-2.44-.19-26.9-.93-53.8-1.8-80.69-2.89-2.97-.12-4.87 1.23-7.2 2.46-5.52 2.91-7.53 6.64-6.23 13.2 1.94 9.75 2.62 19.74 3.85 29.83zm68.18-117.1c0-1.04.05-1.87-.01-2.69-1.34-20.08-2.92-40.14-3.88-60.24-.26-5.55-2.1-8.69-7.27-10.35-2.75-.89-5.03-2.85-8.34-2.3-7.83 1.29-15.72 2.2-23.58 3.32-7.15 1.02-7.07 1.06-7.81 8.27-1.37 13.37-.72 26.69 1.61 39.87 1.7 9.63 4.21 19.12 6.39 28.83 14.77-1.62 28.72-3.15 42.89-4.71zm-60.49 132.26c-2.07 9.03-3.44 17.72 2.06 25.68 3.17 4.59 6.96 8.76 10.52 13.08.45.54 1.14 1.01 1.81 1.21 10.09 2.97 20.11 3.76 29.24-2.66 5.17-3.64 10.01-7.78 14.8-11.92 2.05-1.77 4.21-3.86 5.22-6.27 1.91-4.54 3.01-9.42 4.55-14.47-22.86-1.56-45.42-3.1-68.2-4.65zm15.38-115.33c0 1.17-.05 1.89.01 2.6.86 11.61 1.68 23.23 2.7 34.83.08.95 1.42 2.36 2.39 2.57 6.4 1.39 12.81 2.79 19.29 3.63 6.13.8 12.33.6 17.71-3.14.87-.6 1.7-1.91 1.75-2.93.53-10.57.89-21.16 1.28-31.74.03-.91-.08-1.83-.14-2.88-14.98-.98-29.74-1.94-44.99-2.94zm-48.75 7.57c.41 1 .69 1.79 1.05 2.54 3.92 8.21 8.05 16.34 11.69 24.67 1.54 3.53 3.34 4.92 7.3 4.5 6.81-.72 13.68-.85 19.78-1.19-.52-8.58-.96-16.78-1.53-24.97-.37-5.34-2.77-9.52-7.59-12.06-.96-.51-2.28-.91-3.27-.67-9.11 2.3-18.18 4.74-27.43 7.18zm109.24 36.71c2.54 0 4.65-.12 6.74.02 5.3.36 8.54-2.43 10.72-6.84.89-1.79 1.64-3.67 2.29-5.56 5.07-14.78 1.47-22.5-13.02-28.11-.1-.04-.19-.09-.29-.13-2.32-.85-8.09 2.8-7.99 5.26.43 11.63 1 23.24 1.55 35.36z"/><path d="m287.23 34.92c6.65 7.8 10.83 16.61 12.41 26.33 1.92 11.8 3.56 23.72 4.18 35.64.99 18.83 7.18 35.98 14.77 52.88 6.2 13.81 12.26 27.69 15.53 42.59 3.74 17.08 4.75 34.41 4.67 51.82-.01 1.16-.81 2.64-1.71 3.44-10.38 9.1-22.4 12.17-35.75 8.71-6.74-1.75-13.25-4.39-19.86-6.67-3.53-1.22-7.03-1.49-10.53.03-6 2.61-8.76 8.94-6.37 15.67 1.48 4.17 3.78 8.04 5.46 12.14.98 2.4 1.93 4.96 2.12 7.51 1.89 24.84 3.56 49.7 5.46 74.53.22 2.85-.45 4.33-3.22 4.95-1.32.3-2.57.94-4.16 1.54-3.7-6.6-7.25-12.75-3.99-20.85 2.55-6.34 1.43-13.14.11-19.76-3.65-18.27-7.64-36.49-10.66-54.87-1.38-8.39-.95-17.11-1-25.68-.01-1.9 1.07-4.06 2.25-5.66 13.31-18.04 24.57-37.35 35.09-57.08 3.97-7.45 7.08-15.36 10.52-23.09 1.17-2.63.97-5.2-.03-7.98-7.9-21.95-14.58-44.23-18.39-67.3-2.59-15.68-2.53-31.23 2.2-46.55.24-.68.54-1.35.9-2.29zm28.67 147.32c-9.57 5.86-17.46 12.78-23.27 22.13-5.23 8.43-10.85 16.65-16.8 24.59-2.02 2.7-2.53 4.49-.38 6.96.27.32.52.69.66 1.08.89 2.37 2.59 2.59 4.97 2.69 5.98.24 12.07.48 17.87 1.81 8.3 1.9 15.73.43 22.84-3.72.82-.48 1.69-1.72 1.7-2.63.36-17.91-1.6-35.51-7.59-52.91z"/></g></svg>