<svg enable-background="new 0 0 400 400" viewBox="0 0 400 400" xmlns="http://www.w3.org/2000/svg"><g fill="#fafafb"><path d="m12.4 4.8-6.1 9h6v1.2h-8v-.5l6.1-8.9h-5.7v-1.2h7.6v.4z"/><path d="m14 15v-10.6h3c1.6 0 2.9.5 4 1.4s1.6 2.2 1.6 3.8-.5 3-1.6 3.9-2.4 1.5-4 1.5zm1.4-9.4v8.2h1.6c1.3 0 2.4-.4 3.1-1.1s1.1-1.8 1.1-3.1-.4-2.3-1.2-3-1.8-1-3.1-1z"/><path d="m26.1 4.4v10.6h-1.4v-10.6z"/><path d="m36.1 14.6c-.8.4-1.8.6-2.9.6-1.5 0-2.7-.5-3.6-1.4s-1.4-2.2-1.4-3.8c0-1.7.5-3.1 1.5-4.1s2.3-1.6 3.9-1.6c1 0 1.8.1 2.5.4v1.4c-.8-.4-1.6-.6-2.5-.6-1.2 0-2.1.4-2.9 1.2s-1.1 1.8-1.1 3.2c0 1.3.3 2.3 1 3s1.6 1.1 2.7 1.1c1 0 2-.2 2.7-.7v1.3z"/><path d="m37.6 14.3c0-.2.1-.5.3-.6s.4-.3.6-.3c.3 0 .5.1.6.3s.3.4.3.6-.1.4-.3.6-.4.3-.6.3c-.3 0-.5-.1-.6-.3s-.3-.4-.3-.6z"/><path d="m50.2 15h-1.6l-5.3-8.2c-.2-.2-.3-.5-.4-.7 0 .2.1.7.1 1.5v7.4h-1.4v-10.6h1.7l5.2 8.1c.2.4.4.6.4.7 0-.3-.1-.8-.1-1.5v-7.3h1.4z"/><path d="m58.6 15h-5.7v-10.6h5.5v1.2h-4.1v3.4h3.8v1.2h-3.8v3.6h4.3z"/><path d="m67.1 5.6h-3.1v9.4h-1.4v-9.4h-3v-1.2h7.5z"/></g><path d="m44.85 66.57c8.8-1.77 17.33-3.51 25.87-5.2 16.33-3.23 32.61-6.76 49.03-9.5 6.54-1.09 13.37-.71 20.06-.51 15.31.46 30.63.94 45.91 1.96 7.43.49 14.81 2.1 22.17 3.42 2.67.48 5.86 7 4.79 9.47-.3.7-1.25 1.35-2.03 1.56-5.47 1.45-10.98 2.78-16.48 4.13-.54.13-1.12.08-1.67.15-11.6 1.51-14.52 4.72-14.6 16.38-.03 4.13.23 8.28.49 12.41.59 9.35-.64 18.48-3.62 27.91 5.52.33 10.6.48 15.65.98 2.6.26 5.29.8 7.68 1.82 9.45 4.03 18.82 8.25 28.18 12.5 6.93 3.14 10.5 9.32 13.21 15.87 9.19 22.17 6.72 43.85-4.16 64.64-5.16 9.87-11.54 19.1-17.46 28.56-3.44 5.5-5.72 11.25-5.94 17.88-.76 22.18-14.04 39.08-35.47 45.19-11.88 3.38-24 5.41-36.41 4.93-1.42-.05-3.24-.91-4.11-2-15.84-19.86-31.57-39.8-47.27-59.76-.94-1.19-1.61-2.68-2.1-4.13-4.21-12.38-8.23-24.81-12.58-37.14-1.09-3.11-2.95-5.99-4.75-8.79-5.49-8.56-11.32-16.91-16.6-25.6-1.86-3.06-2.6-6.84-3.67-10.35-.48-1.59-.15-2.95 1.87-3.62 8.24-2.72 15.08-7.79 21.41-13.51 5.47-4.94 11.56-8.79 18.37-11.51 5.62-2.24 9.88-6.06 13.09-11.07.57-.89.97-2.46.58-3.33-4.33-9.78-3.75-20.36-5.09-30.62-.73-5.54-1.21-11.12-1.69-16.69-.16-1.81-.74-2.92-2.68-3.15-7.5-.91-14.99-2.04-22.51-2.76-5.99-.57-12.09-.24-18.02-1.11-4.81-.73-8.23-3.87-9.45-9.41zm164.61 145.35c-.78-.07-1.11-.15-1.43-.12-19.17 1.39-38.46 1.74-57.29 6.16-14.13 3.31-28.26 6.6-42.29 10.32-5.52 1.47-5.26 2.03-4.24 7.68 1.48 8.18 6.94 14.14 11.11 20.84 1.05 1.69 2.12 1.97 4.11 1.57 15.66-3.13 31.34-6.2 47.06-9.02 11.59-2.08 23.09-4.31 33.47-10.24 1.06-.61 2.26-1.66 2.58-2.74 2.39-8.04 4.59-16.12 6.92-24.45zm-46-111.05c-.22-3.9-.16-6.84-.6-9.69-1.33-8.67-8.22-13.59-16.86-12.27-2.76.42-5.52.88-8.3 1.18-9 .96-16.1 4.35-18.53 14-1.46 5.81-3.73 11.52-4.31 17.4-.6 6.02 2.03 11.85 5.94 16.32 1.65 1.89 5.69 2.02 8.7 2.33 8.34.86 16.7 1.62 24.51-2.86 3.82-2.19 6.48-4.91 7.05-9.45.76-5.97 1.69-11.93 2.4-16.96zm-37.74 174.51c1.3 5.63 3.8 10.03 7.58 13.69 2.65 2.56 5.32 5.11 8.12 7.51 1.14.98 2.56 1.81 3.99 2.29 12.76 4.28 24.12 1.31 34.62-6.63 6.25-4.73 11.29-10.08 12.29-18.3.54-4.42-1.14-7.8-5.17-8.4-10.83-1.59-21.66-2.92-32.45.72-9.5 3.21-19.12 6.03-28.98 9.12zm51.47-124.95c-.36 1.23-.76 2.06-.82 2.91-.81 11.8 2.37 22.73 7.47 33.19.41.85 1.59 1.58 2.55 1.86 6.75 1.94 13.5 3.93 20.33 5.52 4.15.96 8.42.92 12.44-1.09 1.84-.92 2.87-2.13 3.01-4.35.23-3.44.76-6.88 1.35-10.28.69-4.01-.49-7.53-2.59-10.78-2.99-4.64-7.51-7.32-12.67-8.76-10.17-2.84-20.44-5.43-31.07-8.22zm-11.62 31.68c-.45-7.34-2.41-14.25-6.66-20.37-2.83-4.07-6.62-7.05-11.51-8.09-1.79-.38-4.02-.09-5.69.67-5.68 2.6-9.6 6.98-12.33 12.66-1.87 3.89-4.21 7.61-6.77 11.1-1.47 2.01-1.48 3.58-.25 5.42.74 1.11 1.46 2.33 2.49 3.12 4.7 3.58 9.47 7.07 14.31 10.45.68.47 1.92.41 2.83.24 4.83-.9 9.63-1.91 14.44-2.89 7.24-1.48 7.83-2.12 8.87-9.6.12-.88.18-1.78.27-2.71zm-45.17 20.19c-7.04-9.26-12.5-18.68-20.83-25.81-1.67-1.43-3.68-2.57-5.7-3.44-1.81-.78-4.03-1.77-5.76-1.36-5.81 1.4-11.49 3.35-17.2 5.15-2.05.65-2.39 1.94-1.42 3.87 3.88 7.76 7.37 15.73 11.61 23.28 3.67 6.52 8.45 8.56 15.73 6.54 7.79-2.16 15.31-5.3 23.57-8.23z" fill="#010105"/><path d="m240.64 374.7c-4.75-10.14-2.98-19.65.8-29.01.63-1.56 2.26-2.73 3.45-4.06 8.29-9.28 15.93-19.21 17.74-31.78 1.49-10.34 1.25-20.96 1.47-31.46.13-6.26-.43-12.52-.49-18.79-.02-1.97.46-3.99.99-5.91 3.28-11.96 6.07-24.1 10.14-35.79 3.4-9.77 8.53-18.92 12.52-28.5 2.82-6.77 5.07-13.77 7.44-20.72.81-2.39-.12-3.84-2.51-5.28-2.86-1.73-5.78-4.16-7.4-7.01-8.25-14.46-16.65-28.87-23.87-43.84-5.32-11.02-9.21-22.77-13.19-34.38-2.95-8.58-7.47-15.97-13.96-22.18-7.02-6.72-13.1-14.05-16.38-23.39-1.39-3.95 1.4-8.04 5.66-7.49 5.74.74 11.5 1.7 17.09 3.18 13.81 3.67 27.73 7.11 41.2 11.78 8.9 3.08 17.29 7.8 25.58 12.4 11.59 6.43 21.88 14.65 31.17 24.19 10.67 10.96 13.65 24 11.34 38.63-1.51 9.57-4.8 18.58-9.04 27.26-.53 1.08-1.41 1.98-2.09 2.98-1.36 2.02-3.29 3.9-3.93 6.13-1.62 5.65-4.84 10.26-8.28 14.83-13.35 17.68-24.6 36.56-31.79 57.59-2.81 8.22-4.66 16.77-6.89 25.19-.22.83-.13 1.79-.03 2.67 1.67 14.44 3.37 28.88 5.04 43.33.91 7.87-2.05 14.97-4.71 22.05-3.11 8.29-7.48 15.77-13.39 22.61-4.14 4.79-6.93 10.96-9.5 16.87-4.68 10.79-13.92 14.78-24.18 17.9zm28.81-298.29c.7 3.48 1.09 6.7 2.01 9.77 2.23 7.46 6.74 13.54 12.13 19.03 2.86 2.91 2.85 5.92.38 8.83-.56.66-.23 2.09-.31 3.16.23.01.45.02.68.03.92-1.48 1.85-2.95 2.94-4.69 7.08 6.9 13.9 13.55 20.93 20.4 1.78-3.31 3.57-6.05 4.79-9.03 10.3-25 7.03-29.89-6.49-43.94-5.76-5.98-12.58-6.37-19.52-6.39-5.61-.02-11.21 1.74-17.54 2.83zm-2.89 247.94c-.7 3.14-1.26 5.66-1.94 8.73 2.8-.8 4.94-1.42 7.45-2.13-1.89-2.27-3.44-4.12-5.51-6.6z" fill="#010105"/></svg>