<svg enable-background="new 0 0 400 400" viewBox="0 0 400 400" xmlns="http://www.w3.org/2000/svg"><path d="m347.61 374.83c-3.66-12.66-9.1-24.85-10.67-38.19-.87-7.4-3.43-14.3-7.08-20.82-5.46-9.76-10.82-19.57-16.12-29.41-1.42-2.64-2.6-5.43-3.69-8.23-8.68-22.25-21.44-41.76-39.35-57.63-2.74-2.43-6.77-4.02-10.44-4.68-9.78-1.76-19.71-2.72-29.56-4.14-6.45-.93-10.56-4.74-11.88-11.11-1.89-9.13-.15-17.51 5.79-24.86 2.74-3.39 5.67-6.65 8.27-10.15 3.92-5.29 8.7-9.42 14.33-12.87 9.69-5.93 15.35-22.7 10.98-33.03-3.55-8.4-10.48-13.79-18.68-17.48-2.33-1.05-4.81-1.94-7.31-2.36-4.33-.73-8.51-1.01-11.72 3.35-1.8 2.45-4.51 4.37-7.08 6.11-9.02 6.09-19.97 3.19-24.99-6.99-1.46-2.97-1.97-6.41-3.35-9.43-.74-1.64-2.13-3.51-3.69-4.15-6.08-2.49-12.32-1.32-18.46.15-.73.17-1.43 1.06-1.85 1.79-6.62 11.43-10.88 23.74-13.24 36.7-.28 1.54.97 3.33 1.45 5.02 1.82 6.52 5.84 11 11.47 14.89 7.95 5.49 16.06 9.82 25.71 11.53 9.98 1.77 15.47 8.37 16.65 19.2.52 4.75.05 9.6.33 14.39.67 11.78-2.35 23.01-4.9 34.32-.22.98-.36 2.03-.82 2.9-8.63 16.56-17.38 33.06-28.47 48.17-.69.93-1.79 1.68-2.86 2.2-9.57 4.64-18.19 10.84-27.2 16.33-9.03 5.51-18.51 11.76-29.55 12.85-8.09.8-15.75-.76-22.02-7.21-14.47-14.89-26.25-31.4-32.47-51.41-1.17-3.78-1.37-7.87-1.88-11.84-1.24-9.65-2.39-19.31-3.58-28.96-.98-8.03-.59-15.89 3.2-23.23.69-1.33 1.7-2.74 2.93-3.5 6.19-3.79 12.5-7.38 18.77-11.05 3.86-2.26 7.86-4.31 11.51-6.85 3.96-2.76 4.47-8.15 1.42-11.94-3.36-4.19-6.98-8.18-10.22-12.46-4.45-5.87-9.11-11.66-12.85-17.98-3.82-6.45-9.47-8.13-16.1-7.99-6.34.13-11.7-6.61-8.78-12.24 1.09-2.09 4.73-4.05 7.19-4.02 9.17.1 17.21-3.57 25.51-6.46.94-.33 1.84-.8 2.72-1.28 13.21-7.21 26.32-14.61 39.65-21.61 14-7.35 28.87-8.43 44.03-4.53 10.16 2.61 20.51 5.03 30.1 9.13 6.21 2.66 11.38 3.34 17.36.63 4.42-2 8.95-3.8 13.54-5.36 18.72-6.36 37.53-12.48 56.22-18.94 5.28-1.82 10.56-1.93 15.88-1.35 6.68.72 10.91 4.27 10.58 10.82-.54 10.7 2.67 20.81 3.31 31.26.74 11.92-1.54 23.37-5.67 34.5-.38 1.02-1.14 1.91-1.74 2.84-8.1 12.46-17.78 23.52-29 33.28-5.66 4.92-8.4 11.25-7.69 18.79.12 1.26 1.15 3.05 2.23 3.52 9.18 4 16.1 10.65 22.4 18.19 4.37 5.24 8.96 10.32 13.78 15.15 4.9 4.92 8.34 10.58 11.07 16.95 7.01 16.33 14.6 32.41 21.56 48.76 2.35 5.51 3.41 11.55 5.22 17.31 4.04 12.9 8.18 25.77 12.26 38.66.37 1.16.9 2.4.81 3.56-.52 7.14.78 13.99 2.89 20.77.49 1.57.58 3.31.55 4.97-.1 5.57-.56 6-6.71 6.75zm-170.49-180.03c.02-12.36-6.16-19.93-18.53-20.57-7.44-.38-15.18.7-22.46 2.45-14.99 3.61-28.37 11.33-42.06 18.15-6.29 3.13-12.56 6.31-18.7 9.72-1.15.64-2.59 2.93-2.24 3.68 1.28 2.73.45 7.32 5.31 7.36 5.58.05 11.25.54 16.71-.28 10.48-1.57 20.89-3.75 31.24-6.02 10.82-2.38 21.51-5.24 32.78-3.57 2.73.41 5.65.67 8.33.15 9.68-1.86 9.28-2.05 9.62-11.07zm-50.37-87.92c-.07-7.41-7.39-11.92-12.92-9.29-7.97 3.8-15.83 7.84-23.85 11.52-2.53 1.16-3.43 2.86-3.72 5.34-.89 7.46 6.54 20.6 13.43 23.64.31.13.63.23.95.33 3.82 1.25 7.18.43 10.4-1.95 7.57-5.61 10.42-14.04 13.55-22.3 1.05-2.79 1.71-5.74 2.16-7.29zm-17.58 137.83c9.26-.95 18.54-1.35 27.61-2.99 9.83-1.77 19.5-4.53 29.14-7.22 3.27-.91 5.1-5.97 4.23-9.55-.65-2.7-3.12-4.2-7.26-3.99-18.15.94-35.1 6.14-51.06 14.67-4.82 2.59-4.71 2.79-2.66 9.08zm31.8 21.8c-2.11-1.33-3.88-3.25-5.9-3.56-7.42-1.15-14.05 1.52-20.19 5.44-.79.5-1.58 2.11-1.34 2.89.39 1.3 1.41 3.01 2.54 3.38 8.63 2.76 18.37-.29 24.89-8.15z" fill="#000001"/><path d="m188.62 42.36c-7.73-.53-15.18-1.09-22.64-1.49-1.6-.08-3.33.21-4.83.77-3.97 1.49-8.01 2.93-11.75 4.91-8.52 4.51-17.71 5.83-27.12 6.62-9.58.8-19.25 1.34-28.68 3.07-7.06 1.3-13.85 4.19-20.69 6.59-4.97 1.75-9.77 1.98-14.67-.17-2.14-.94-3.59-2.18-3.64-4.66-.01-.55-.25-1.09-.33-1.64-1.22-8.32-.45-9.71 6.73-13.87 11.39-6.59 24-8.86 36.74-10.84 11.49-1.78 22.88-4.21 34.41-5.64 4.97-.62 10.18.44 15.26.96 10.23 1.03 20.46 2.17 30.68 3.34 6.72.76 10.25 4.75 10.53 12.05z" fill="#000001"/><g fill="#fbfafa"><path d="m6.44 374.46.42-.45c.65.47 1.27.95 1.85 1.44l-.45.49c-.65-.56-1.25-1.06-1.82-1.48m.93 7.33-.63-.26c.55-1.36 1.05-2.8 1.52-4.33.19.1.38.19.59.27-.46 1.29-.95 2.73-1.48 4.32m-.38-10.38.44-.42c.43.34 1.01.82 1.74 1.44l-.49.49c-.53-.51-1.09-1.01-1.69-1.51m2.5.35h1.72v-1.04h.59v1.04h3.52v-1.04h.59v1.04h1.75v.53h-1.75v1.42h-2.03v.97h3.22v2.03h-3.24c0 .35-.01.66-.03.93h3.32v.53h-3.37c-.03.27-.08.58-.15.94h3.96v.53h-3.71c.67.92 1.93 1.48 3.79 1.68-.13.24-.23.44-.29.59-2.13-.38-3.48-1.08-4.04-2.12-.43.97-1.77 1.72-4.03 2.23-.09-.19-.2-.37-.33-.55 2.1-.42 3.37-1.03 3.81-1.83h-3.36v-.53h3.58c.08-.29.13-.61.16-.94h-3.33v-.53h3.39c.02-.27.04-.58.04-.93h-3.23v-2.03h3.25v-.97h-2.07v-1.42h-1.73zm1.12 3.44v1h2.65c.01-.3.02-.44.01-.4v-.25-.35zm1.19-2h3.52v-.91h-3.52zm4.71 2h-2.63v.59c0 .15-.01.28-.01.4h2.64z"/><path d="m13.56 383.74h.63v1.52h2.72v6.07h1.13v.6h-11.06v-.6h1.13v-6.07h2.73v-1.52h.63v1.52h2.1v-1.52zm-2.69 8.83.38.56c-1.24.63-2.53 1.25-3.85 1.85-.1-.21-.21-.42-.34-.63 1.36-.55 2.63-1.15 3.81-1.78m-2.13-4.27h2.1v-2.45h-2.1zm0 3.04h2.1v-2.46h-2.1zm2.72-3.04h2.1v-2.45h-2.1zm0 3.04h2.1v-2.46h-2.1zm6.07 3.6c-1.41-.71-2.7-1.3-3.86-1.78l.35-.56c1.45.62 2.75 1.19 3.88 1.72zm-1.25-9.09h-2.1v2.45h2.1zm-2.09 5.49h2.1v-2.46h-2.1z"/></g></svg>