<svg enable-background="new 0 0 400 400" viewBox="0 0 400 400" xmlns="http://www.w3.org/2000/svg"><path d="m75.08 305.28c0-2.72-.19-5.07.09-7.37.12-1.01 1.01-2.16 1.88-2.81 5.27-3.97 10.57-7.92 16.01-11.65 2.06-1.41 2.95-3.02 3.19-5.43 1.58-15.69 3.14-31.39 4.96-47.05.54-4.62 1.6-9.24 2.95-13.7 4.53-14.97 9.31-29.87 13.99-44.79.23-.75.61-1.49.63-2.25.26-6.97 2.26-13.35 6.19-19.15.55-.82.45-2.15.47-3.25.06-3.24.02-6.48.02-9.65 3.41-2.06 9.11-1.12 8.32-7.3 10.6.39 20.26 2.03 27.35 11.05 9.07-13.61 5.78-26.91 1.29-41.02 4.14 1.45 8.34 3.68 8.29-3.17-2.74-.41-5.57-3.41-8.85.74-1.95-4.25-3.5-8.27-5.57-11.99-2.07-3.73-4.64-7.17-7.09-10.88-17.61 16.72-37.18 28.12-60.04 35.09 0-6.4-.08-12.27.1-18.13.02-.77 1.3-1.65 2.17-2.22 7.94-5.22 16.16-10.05 23.8-15.68 5.08-3.74 9.66-8.31 13.9-13.02 5.11-5.68 7.02-12.75 5.76-20.28-1.44-8.57 3.99-12.66 9.97-15.99.63-.35 1.9.15 2.76.51 12.12 5.08 20.33 14.31 26.76 25.39 2.75 4.74 5.7 9.4 7.94 14.37 1.89 4.21 2.81 8.85 4.3 13.25 1.29 3.8 2.87 7.51 4.11 11.33.36 1.1-.03 2.43-.06 3.65-.04 1.17-.3 2.4-.06 3.51.86 4.04 1.67 8.12 2.92 12.05.81 2.55-.19 3.63-2.16 4.73-2.51 1.39-4.95 2.93-7.33 4.54-.57.38-.79 1.28-1.25 2.09 2.91 2.07 5.72 4.06 8.13 5.78-.62 3.48-.92 6.68-1.84 9.7-.59 1.93-1.84 3.83-3.25 5.31-3.85 4.04-4.8 8.71-2.38 13.73 1.99 4.13 3.89 8.3 6.03 12.35 6.4 12.09 8.63 24.79 6.22 38.32-.67 3.73-.9 7.55-1.26 11.33-.63 6.61-.16 13.43-4.39 19.28-.93 1.28-1.24 3.13-1.48 4.77-1.74 11.99-8.75 20.37-18.49 26.71-10.87 7.08-21.9 13.9-32.94 20.71-1.95 1.2-2.63 2.33-1.85 4.57.69 1.99 1.2 4.13 1.29 6.22.28 6.01 3.39 10.13 8.13 13.4 9.84 6.79 19.56 13.76 29.45 20.49 13.9 9.45 29.36 11.59 45.29 7.54 15.45-3.92 30.56-9.17 45.81-13.88 1.05-.32 2.17-.81 2.94-1.54 8.4-7.98 18.86-12.73 28.7-18.46 3.26-1.89 6.2-4.33 9.28-6.53.91-.65 1.72-1.49 2.7-1.97 2.44-1.19 4.88-2.25 7.28.33.78.83 2.12 1.14 3.87 2.02-1.33 1.8-2.35 3.78-3.91 5.16-3.54 3.13-5.94 6.84-7.56 11.27-1.83 5.01-4.66 9.39-9.5 12.15-7.5 4.28-13.42 10.15-18.34 17.31-1.9 2.77-5.31 4.67-8.33 6.47-8.83 5.3-17.78 10.55-28.06 12.36-3.69.65-7.8.3-11.45-.63-4.57-1.15-8.92-1.71-13.51-.53-13.31 3.39-26.6 6.92-40 9.95-8.16 1.85-16.79 2.14-24.57-.69-9.8-3.56-19.03-8.41-26.68-16.19-13.1-13.3-22.1-28.87-28.23-46.27-3.03-8.63-4.72-10.15-16.19-8.65-2.83.4-5.52 1.64-8.62 2.59zm54.69-47.14c7.66-.35 13.18-3.27 17.36-9.29 3.61-5.21 7.86-9.98 11.81-14.96.53-.67 1.21-1.41 1.34-2.2 1.46-8.69 3.28-17.32.8-26.22-2.22-7.95-3.33-16.25-7.99-23.34-2.09-3.17-4.57-5.97-8.39-7.41-1.11 6.02-1.8 11.91-3.35 17.57-2.2 8.04-4.44 16.16-7.75 23.78-3.05 7.03-7.35 13.28-5.69 21.7 1.28 6.55 1.26 13.34 1.86 20.37zm47.11-32.43c1.34.81 2.34 1.42 3.39 2.06.79-.64 1.47-1.19 2.25-1.82-1.07-1.91-2.08-3.7-2.71-4.83-2.77 1.72-5.22 3.23-7.86 4.87.21.8.51 1.96.82 3.18 2.48.19 4.55.15 4.11-3.46zm119.71 99.17c3.97-4.31 3.6-7.26-.7-10.29.21 3.16.45 6.61.7 10.29z" fill="#010000"/><g fill="#fbfcfa"><path d="m361.2 9.6.8-1c.9.7 1.9 1.4 2.9 2.3l-.9 1.1c-1-1-2-1.8-2.8-2.4zm.5 10.6c.9-2.1 1.6-4.3 2.3-6.7.4.2.8.4 1.3.6-.7 2.1-1.5 4.3-2.2 6.6zm.4-15.2.9-.9c1 .8 2 1.6 2.8 2.4l-1 1c-.9-.9-1.8-1.7-2.7-2.5zm12.5-1.2h1.2v1.4h2.7v1.1h-2.7v2.7h-1.2v-.6h-1.8v1.3h4.9v3.8h-1.2v-.5h-3.7c0 .4-.1.9-.1 1.2h5.1v1h-5.2c0 .5-.1.9-.2 1.2h6v1h-5.2c1.1 1.3 2.9 2 5.5 2.2-.4.4-.7.8-.9 1.3-2.9-.5-4.8-1.6-5.7-3.5h-.1c-.8 1.7-2.7 2.9-5.9 3.6-.2-.4-.6-.8-.9-1.1 2.8-.6 4.6-1.4 5.4-2.5h-4.8v-1h5.3c.1-.3.2-.7.2-1.2h-4.9v-1h5c0-.4 0-.8.1-1.2h-3.5v.5h-1.2v-3.8h4.9v-1.3h-1.8v.5h-1.2v-2.7h-2.7v-1h2.6v-1.4h1.2v1.4h4.7v-1.4zm-6.6 8.3h3.6c0-.4 0-.9 0-1.4h-3.6zm1.9-4.6h4.7v-1.3h-4.7zm6.6 3.2h-3.7v1.4h3.7z"/><path d="m385.3 3.8h1.3v2.2h2.8v-2.2h1.3v2.2h4.1v9.1h1.7v1.3h-16.9v-1.3h1.7v-9.1h4.1v-2.2zm.4 13.1.7 1.2c-1.8.9-3.8 1.9-6 2.9-.2-.4-.5-.8-.8-1.3 2.3-1 4.3-1.9 6.1-2.8zm-3.1-6.4h2.8v-3.2h-2.8zm0 4.6h2.8v-3.3h-2.8zm4-4.6h2.8v-3.2h-2.8zm0 4.6h2.8v-3.3h-2.8zm3.7 1.9c2.1.9 4.1 1.8 6.1 2.7l-.7 1.3c-2.2-1.1-4.2-2-6.1-2.9zm3.2-9.7h-2.8v3.2h2.8zm-2.8 7.8h2.8v-3.3h-2.8z"/></g></svg>