<svg enable-background="new 0 0 400 400" viewBox="0 0 400 400" xmlns="http://www.w3.org/2000/svg"><g fill="#fafbfc"><path d="m346.9 398 5.4-7.3h-5.2v-.6h5.9v.6l-5.4 7.2h5.5l-.1.6h-6.2v-.5z"/><path d="m354.7 390.1h2.8c2.3 0 3.9 1.6 3.9 4.1s-1.6 4.3-3.9 4.3h-2.8zm.6 7.8h2c2.2 0 3.3-1.6 3.3-3.6 0-1.8-1-3.6-3.3-3.6h-2z"/><path d="m363.9 390.1v8.4h-.6v-8.4z"/><path d="m372.5 396.3c-.4 1.3-1.4 2.3-3.2 2.3-2.4 0-3.7-1.9-3.7-4.3 0-2.3 1.2-4.3 3.7-4.3 1.8 0 2.9 1 3.2 2.4h-.6c-.4-1.1-1.1-1.8-2.5-1.8-2.1 0-3 1.9-3 3.7s.9 3.7 3 3.7c1.4 0 2.1-.7 2.5-1.7z"/><path d="m373.8 398.5v-1.5h.6v1.5z"/><path d="m376.2 398.5v-8.4h1c1.3 2 4.4 6.7 4.9 7.6-.1-1.2-.1-2.4-.1-3.8v-3.8h.7v8.4h-.9c-1.2-1.9-4.4-6.8-5-7.7.1 1.1 0 2.3 0 3.9v3.9h-.6z"/><path d="m390 394.4h-4.3v3.5h4.7l-.1.6h-5.2v-8.4h5.1v.6h-4.5v3.1h4.3z"/><path d="m394.2 390.7h-2.8v-.6h6.3v.6h-2.8v7.8h-.7z"/></g><path d="m107.08 200.66c.06-.35.4-1.38.4-2.41-.01-3.15 1.83-4.37 4.6-4.99 3.06-.68 4.03-4.01 2.02-6.47-2.1-2.58-1.72-3.52.49-5.75 1.67-1.68 2.81-4.03 3.71-6.27.64-1.62.18-3.65.74-5.32 1.05-3.15 2.38-6.21 3.8-9.21.67-1.41 2.02-2.51 2.68-3.92 6.12-13.05 16.2-23.23 24.72-34.55 5.53-7.36 10.57-15.09 15.65-22.77 1.22-1.85 2.26-1.96 4.35-1.64 5.01.77 7.81 3.48 9.23 8.19 1.04 3.44 2.63 6.71 3.65 10.15 1.77 5.96 6.1 9.23 11.49 11.43.69.28 1.95.12 2.49-.35 12.69-11.09 25.59-21.96 37.79-33.55 4.32-4.11 6.96-10 10.32-15.11 1.28-1.94 1-3.54-.9-5.17-4.11-3.51-7.96-7.31-12.04-10.86-1.5-1.3-3.28-2.33-5.05-3.28-3.74-2-7.26-2.44-10.51 1.24-2.57 2.91-5.72 5-9.96 4.69-.61-.05-1.32.53-1.9.93-4.99 3.48-9.96 6.98-14.68 10.3-5.67-4.06-8.16-3.22-8.91 2.28-2.49 1.24-4.31.1-5.59-1.92-1.1-1.73-1.39-3.68.94-4.81 2.34-1.14 4.76-2.13 7.7-3.42-.8-2.87 2.37-3.85 4.79-5.38 5.9-3.75 12.04-7.17 17.66-11.31 3.76-2.77 6.74-6.59 10.16-9.85 2.12-2.01 4.19-4.21 6.68-5.64 3.18-1.82 5.98-1.06 7.93 2.02 2.92 4.59 7.83 6.26 12.01 9.07 2.01 1.35 3.65 3.31 5.31 5.13 1.56 1.7 2.71 3.81 4.41 5.34 12.16 10.94 21.08 24.26 28.72 38.56 2.79 5.23 5.66 10.42 8.45 15.65 2.24 4.19 3.18 8.51 1.07 13.08-.4.86-.71 1.79-.85 2.72-2.01 12.92-11.03 19.49-21.97 24.36-6.48 2.89-12.92 5.87-19.41 8.73-1.01.45-2.46.99-3.28.6-3.34-1.59-5.07.41-6.45 2.73-1.21 2.03-2.17 3.72-5.05 3.23-4.29-.72-5.94-1.62-7.21-4.88 1.32-1.09 2.61-2.33 4.08-3.33 7.82-5.33 13.91-12.28 19.52-19.81 2.63-3.53 5.89-6.61 8.98-9.78 3.63-3.73 7.44-7.34 8.79-12.61.32-1.25.25-2.7-.03-3.98-.49-2.27-1.57-4.43-1.89-6.71-1.03-7.28-6.54-11.25-11.42-16.19-1.78 4.87-3.43 9.43-5.12 13.98-.33.89-.52 2.09-1.19 2.54-5.13 3.45-9.2 8.6-15.63 10.01-.31.07-.59.26-.9.31-8.26 1.38-14.82 5.54-20.51 11.64-1.85 1.98-5.03 2.85-7.75 3.83-1.95.7-2.68 1.74-3.18 3.72-1.42 5.67-.69 10.65 1.35 16.35 2.85 7.95 3.48 16.71 4.91 25.15 1.42 8.34 2.82 16.7 3.89 25.09.46 3.62.04 7.35.08 11.03.08 7.51.04 15.02.4 22.51.15 3.26.06 6.22-1.56 9.17-.68 1.24-.93 3.14-.51 4.47.91 2.87.48 5.49-.03 8.35-3.65 20.75-13.63 39.11-22.06 58.01-4.27 9.57-12.47 16.23-21.03 22.12-14.34 9.88-29.8 17.81-45.39 25.49-2.72 1.34-5.75 2.09-8.69 2.92-3.7 1.05-7.04.07-9.14-3.11-.69-1.04-.21-3.25.4-4.63.44-.99 1.94-1.54 3.01-2.23 6.73-4.32 12.74-9.38 17.77-15.68 2.34-2.93 5.64-5.1 8.5-7.62 15.84-13.93 30.95-28.53 39.73-48.19 4.31-9.65 7.83-19.66 11.55-29.56.52-1.38.35-3.17.05-4.68-2.4-12.14-.77-24.29-.29-36.44.02-.42-.02-1 .22-1.21 4.34-3.92.13-7.79-.32-11.58-.1-.8-3.53-2.06-5.05-1.67-4.17 1.07-8.18 2.83-12.2 4.46-11.97 4.86-24.26 8.2-37.27 8.42-4.49.08-8.59-.69-11.69-4.38-.94-1.12-2.13-2.09-3.33-2.95-2.17-1.55-4.43-2.96-7.25-4.83zm59.28-66.02c-.34.13-.67.26-1.01.39-.62 3.86-1.05 7.76-1.92 11.56-.52 2.28-1.29 4.72-2.68 6.54-6.28 8.25-12.84 16.3-19.27 24.43-2.97 3.76-1.63 8.05 3.08 8.76 2.94.44 6.07-.1 9.08-.5 6.07-.79 12.1-1.82 18.16-2.68 2.56-.36 5.14-.56 8.37-.9-.96-1.6-1.33-2.22-1.69-2.82 2.89-1.97 3.09-2.03 2.18-5.15-2.81-9.62-5.59-19.26-8.8-28.75-1.28-3.82-3.63-7.27-5.5-10.88z" fill="#010104"/></svg>